<?xml version="1.0" encoding="UTF-8" standalone="no"?>
<svg width="46px" height="54px" viewBox="0 0 46 54" version="1.1" xmlns="http://www.w3.org/2000/svg" xmlns:xlink="http://www.w3.org/1999/xlink" xmlns:sketch="http://www.bohemiancoding.com/sketch/ns">
    <!-- Generator: Sketch 3.1.1 (8761) - http://www.bohemiancoding.com/sketch -->
    <title>tamoshnya</title>
    <desc>Created with Sketch.</desc>
    <defs></defs>
    <g id="Page-1" stroke="none" stroke-width="1" fill="none" fill-rule="evenodd" sketch:type="MSPage">
        <g id="Desktop" sketch:type="MSArtboardGroup" transform="translate(-440.000000, -406.000000)">
            <g id="tamoshnya" sketch:type="MSLayerGroup" transform="translate(440.000000, 406.000000)">
                <path d="M44.8768224,41.0563144 C47.4719996,35.4909389 42.4714767,30.4907991 35.3156241,27.1539702 C28.1597714,23.8171413 18.1556599,24.6048358 15.5604827,30.1702113 C12.9653055,35.7355867 14.9604683,44.1745771 20.2226542,54 C32.3297442,51.4699407 42.2816452,46.6216898 44.8768224,41.0563144 Z" id="Path" fill-opacity="0.8" fill="#6D6D6D" sketch:type="MSShapeGroup"></path>
                <path d="M40,19.5515074 C40,8.77347746 31.045695,0.0361578526 20,0.0361578526 C8.954305,0.0361578526 0,8.77347746 0,19.5515074 C0,30.3295374 7.51903045,42.273738 20,54 C33.8546675,40.9946915 40,30.3295374 40,19.5515074 Z" id="Oval-1" fill="#CF0030" sketch:type="MSShapeGroup"></path>
                <g id="man" transform="translate(12.000000, 12.000000)" fill="#FFFFFF" sketch:type="MSShapeGroup">
                    <path d="M0.367647059,26 L9.171875,14.3544922 C9.171875,14.3544922 3.47794115,13.166504 0.856387863,15.0234375 C-1.76516543,16.8803711 0.367647059,26 0.367647059,26 Z" id="Path-5"></path>
                    <path d="M4.58340993,26.1800128 C4.58340993,26.1800128 13.5785846,26.1187999 14.8878676,26.1187995 C16.1971507,26.1187992 15.6040901,18.0627441 14.9441636,16.4700568 C14.2842371,14.8773695 12.2483915,14.7373047 12.2483915,14.7373047 L4.58340993,26.1800128 Z" id="Path-6"></path>
                    <path d="M2.77182904,5.05078125 L11.9558824,5.11328125 C11.9558824,5.11328125 12.6100643,12.2590332 7.69094669,11.7067871 C2.77182904,11.154541 2.77182904,5.05078125 2.77182904,5.05078125 Z" id="Path-7"></path>
                    <path d="M1.74908088,-0.157958984 L3.0457261,2.58447266 L11.5810039,2.58447266 L11.5810039,-0.165527479 L1.74908088,-0.157958984 Z" id="Path-8"></path>
                </g>
            </g>
        </g>
    </g>
</svg>