<?xml version="1.0" encoding="UTF-8" standalone="no"?>
<svg width="46px" height="54px" viewBox="0 0 46 54" version="1.1" xmlns="http://www.w3.org/2000/svg" xmlns:xlink="http://www.w3.org/1999/xlink" xmlns:sketch="http://www.bohemiancoding.com/sketch/ns">
    <!-- Generator: Sketch 3.1.1 (8761) - http://www.bohemiancoding.com/sketch -->
    <title>train</title>
    <desc>Created with Sketch.</desc>
    <defs></defs>
    <g id="Page-1" stroke="none" stroke-width="1" fill="none" fill-rule="evenodd" sketch:type="MSPage">
        <g id="Desktop" sketch:type="MSArtboardGroup" transform="translate(-500.000000, -406.000000)">
            <g id="train" sketch:type="MSLayerGroup" transform="translate(500.000000, 406.000000)">
                <path d="M44.8768224,41.0563144 C47.4719996,35.4909389 42.4714767,30.4907991 35.3156241,27.1539702 C28.1597714,23.8171413 18.1556599,24.6048358 15.5604827,30.1702113 C12.9653055,35.7355867 14.9604683,44.1745771 20.2226542,54 C32.3297442,51.4699407 42.2816452,46.6216898 44.8768224,41.0563144 Z" id="Path" fill-opacity="0.8" fill="#6D6D6D" sketch:type="MSShapeGroup"></path>
                <path d="M40,19.5515074 C40,8.77347746 31.045695,0.0361578526 20,0.0361578526 C8.954305,0.0361578526 0,8.77347746 0,19.5515074 C0,30.3295374 7.51903045,42.273738 20,54 C33.8546675,40.9946915 40,30.3295374 40,19.5515074 Z" id="Oval-1" fill="#336566" sketch:type="MSShapeGroup"></path>
                <path d="M14.9051664,12.6101257 L14.5018466,12.6101257 L12.6918787,14.6136532 L12.6918787,29.6979716 L14.5765033,32.0780084 L10.6875,37.4166667 L13.4239161,37.4166667 L16.4555411,33.1329453 L20.0388084,33.1329453 L20.038678,33.106153 L23.5444589,33.106153 L26.5760839,37.3898743 L29.3125,37.3898743 L25.4234967,32.051216 L27.3081213,29.6711792 L27.3081213,14.5868608 L25.4981534,12.5833333 L14.8985571,12.5833333 L14.9051664,12.6101257 L14.9051664,12.6101257 Z M14.9204545,16.7166508 L14.9204545,21.0291541 L25.0795455,21.0291541 L25.0795455,16.7166508 L14.9204545,16.7166508 Z M18.3068182,13.2666482 L18.3068182,14.9916495 L21.6931818,14.9916495 L21.6931818,13.2666482 L18.3068182,13.2666482 Z M16.1903409,29.6541607 C16.8916798,29.6541607 17.4602273,29.0749287 17.4602273,28.3604097 C17.4602273,27.6458908 16.8916798,27.0666588 16.1903409,27.0666588 C15.489002,27.0666588 14.9204545,27.6458908 14.9204545,28.3604097 C14.9204545,29.0749287 15.489002,29.6541607 16.1903409,29.6541607 Z M23.8096591,29.6541607 C24.510998,29.6541607 25.0795455,29.0749287 25.0795455,28.3604097 C25.0795455,27.6458908 24.510998,27.0666588 23.8096591,27.0666588 C23.1083202,27.0666588 22.5397727,27.6458908 22.5397727,28.3604097 C22.5397727,29.0749287 23.1083202,29.6541607 23.8096591,29.6541607 Z" id="Path-10" fill="#FFFFFF" sketch:type="MSShapeGroup"></path>
            </g>
        </g>
    </g>
</svg>